# xmcd
#
# Track frame offsets: 
#        150
#        23862
#        36902
#        56825
#        76497
#        93940
#        115846
#        138922
#        157786
#        182056
#        202536
#        217166
#        237257
#        262413
#        283156
#
# Disc length: 4218 seconds
#
# Revision: 3
# Processed by: cddbd v1.5.1PL0 Copyright (c) Steve Scherf et al.
# Submitted via: ExactAudioCopy v0.95b2
#
DISCID=ce10780f,d410780f
DTITLE=Alkbottle - The Last Of CD2
DYEAR=1998
DGENRE=
TTITLE0=Lauter wie die Sau
TTITLE1=Niemehrwieder fohr I furt
TTITLE2=Loss die Bock an 
TTITLE3=Nua zua
TTITLE4=Motorradlfohrn
TTITLE5=Fanta light (Studio Version)
TTITLE6=I siech nur di 98
TTITLE7=Wir trinken auf Rapid
TTITLE8=Autobus (live 94)
TTITLE9=Ana geht no
TTITLE10=No sleep till Meidling (live 98)
TTITLE11=Der Taxifohrer (live 98)
TTITLE12=Sperrstund (live 98)
TTITLE13=Stefan Webers Grabrede
TTITLE14=Alkbottle (live 98 feat. Stefan W:)
EXTD=
EXTT0=
EXTT1=
EXTT2=
EXTT3=
EXTT4=
EXTT5=
EXTT6=
EXTT7=
EXTT8=
EXTT9=
EXTT10=
EXTT11=
EXTT12=
EXTT13=
EXTT14=
PLAYORDER=
